<svg xmlns="http://www.w3.org/2000/svg" width="106" height="106"><defs><style>.cls-2{fill:#fff}</style></defs><g id="Grupo_642" data-name="Grupo 642"><circle id="Elipse_43" cx="53" cy="53" r="53" data-name="Elipse 43" fill="#204653"/><g id="bx-camera" transform="translate(20 21)"><path id="Trazado_121" d="M60.994 11.832h-8.476L43.646 2.96A3.263 3.263 0 0041.329 2h-13.11a3.263 3.263 0 00-2.317.96l-8.872 8.872H8.555A6.561 6.561 0 002 18.387v36.052a6.561 6.561 0 006.555 6.555h52.439a6.561 6.561 0 006.555-6.555V18.387a6.561 6.561 0 00-6.555-6.555zM8.555 54.439V18.387h9.832a3.263 3.263 0 002.317-.96l8.872-8.872h10.4l8.872 8.872a3.263 3.263 0 002.317.96h9.832L61 54.439z" class="cls-2" data-name="Trazado 121" transform="translate(-2 -2)"/></g><g id="Elipse_44" data-name="Elipse 44" transform="translate(40 40)" stroke="#fff" stroke-width="3" fill="none"><circle cx="13.5" cy="13.5" r="13.5" stroke="none"/><circle cx="13.5" cy="13.5" r="12"/></g><g id="close" transform="rotate(45 -30.477 88.062)"><path id="close-2" d="M5.4 4l2.3-2.3a.967.967 0 000-1.4.967.967 0 00-1.4 0L4 2.6 1.7.3A.967.967 0 00.3.3a.967.967 0 000 1.4L2.6 4 .3 6.3a.967.967 0 000 1.4.908.908 0 00.7.3.908.908 0 00.7-.3L4 5.4l2.3 2.3a.967.967 0 001.4 0 .967.967 0 000-1.4z" class="cls-2" data-name="close"/></g></g></svg>