<svg xmlns="http://www.w3.org/2000/svg" width="148.734" height="133.859" viewBox="0 0 148.734 133.859">
  <g id="Cart_notifications" data-name="Cart notifications" transform="translate(3.599 -10)">
    <g id="bxs-cart-alt" transform="translate(-3.599 10)">
      <path id="Trazado_263" data-name="Trazado 263" d="M149.505,7.339A7.457,7.457,0,0,0,143.3,4H2V18.873H19.1L45.289,90.882a14.9,14.9,0,0,0,13.973,9.794h61.724V85.8H59.262L53.848,70.93h67.138a7.427,7.427,0,0,0,6.834-4.507l22.31-52.056A7.434,7.434,0,0,0,149.505,7.339Z" transform="translate(-2 -4)"/>
      <circle id="Elipse_67" data-name="Elipse 67" cx="11.155" cy="11.155" r="11.155" transform="translate(52.056 111.549)"/>
      <circle id="Elipse_68" data-name="Elipse 68" cx="11.155" cy="11.155" r="11.155" transform="translate(96.676 111.549)"/>
    </g>
  </g>
</svg>
