<svg id="Carrito" xmlns="http://www.w3.org/2000/svg" width="136.527" height="122.872" viewBox="0 0 136.527 122.872">
  <path id="Trazado_77" data-name="Trazado 77" d="M17.7,17.652,40.1,79.259A20.543,20.543,0,0,0,59.347,92.741H111.22V79.089H59.347A6.853,6.853,0,0,1,52.931,74.6L49.6,65.436h63.3a13.7,13.7,0,0,0,13.127-9.9L138.266,12.7A6.827,6.827,0,0,0,131.7,4H2V17.652H17.7Zm95.2,34.131H44.637L32.227,17.652h90.427Z" transform="translate(-2 -4)" fill="#fff"/>
  <ellipse id="Elipse_32" data-name="Elipse 32" cx="10.239" cy="10.239" rx="10.239" ry="10.239" transform="translate(47.784 102.393)" fill="#fff"/>
  <ellipse id="Elipse_33" data-name="Elipse 33" cx="10.239" cy="10.239" rx="10.239" ry="10.239" transform="translate(88.741 102.393)" fill="#fff"/>
</svg>
