<svg xmlns="http://www.w3.org/2000/svg" width="36.448" height="33.098" viewBox="0 0 36.448 33.098">
    <defs>
        <style>
            .cls-1{fill:#707070}
        </style>
    </defs>
    <g id="clip" transform="translate(-236 -110.798)">
        <g id="Grupo_1280" data-name="Grupo 1280" transform="translate(236 110.798)">
            <g id="Clips_2_">
                <g id="Grupo_1279" data-name="Grupo 1279">
                    <path id="Trazado_292" d="M33.69 18.892a9.415 9.415 0 0 0-13.315 0L2.069 37.2a7.043 7.043 0 0 0 8.383 11.15 1.166 1.166 0 0 0 .77-.332l18.307-18.306a4.707 4.707 0 0 0-6.656-6.656L7.894 38.034A1.177 1.177 0 0 0 9.558 39.7l14.979-14.98a2.353 2.353 0 0 1 3.328 3.328L10.389 45.524a4.707 4.707 0 0 1-6.656-6.656l18.306-18.312a7.062 7.062 0 0 1 9.987 9.987L15.383 47.185a1.177 1.177 0 1 0 1.664 1.664L33.69 32.207a9.415 9.415 0 0 0 0-13.315z" class="cls-1" data-name="Trazado 292" transform="translate(0 -16.135)"/>
                </g>
            </g>
        </g>
    </g>
</svg>
