<svg xmlns="http://www.w3.org/2000/svg" width="40.82" height="40.82"><defs><style>.cls-1{fill:#204653}</style></defs><g id="bx-images"><path id="Trazado_122" d="M34.574 2H10.082A4.086 4.086 0 006 6.082v24.492a4.086 4.086 0 004.082 4.082h24.492a4.086 4.086 0 004.082-4.082V6.082A4.086 4.086 0 0034.574 2zM10.082 30.574V6.082h24.492v24.492z" class="cls-1" data-name="Trazado 122" transform="translate(2.164 -2)"/><path id="Trazado_123" d="M6.082 8H2v24.492a4.086 4.086 0 004.082 4.082h24.492v-4.082H6.082z" class="cls-1" data-name="Trazado 123" transform="translate(-2 4.246)"/><path id="Trazado_124" d="M15.123 16.164l-2.041-2.041L9 20.246h20.41L21.246 8z" class="cls-1" data-name="Trazado 124" transform="translate(5.287 4.246)"/></g></svg>