<svg xmlns="http://www.w3.org/2000/svg" width="136.522" height="136.525" viewBox="0 0 136.522 136.525">
  <path id="star_line" data-name="star line" d="M32.826,86.12,22.655,130.162a6.826,6.826,0,0,0,10.437,7.215L70.261,112.6l37.169,24.779a6.827,6.827,0,0,0,10.355-7.55L105.3,86.14l30.964-27.865A6.826,6.826,0,0,0,132.237,46.4L93.32,43.3,76.48,6.021a6.82,6.82,0,0,0-12.437,0L47.2,43.3,8.285,46.391A6.828,6.828,0,0,0,4.06,58.084ZM52.3,56.589a6.814,6.814,0,0,0,5.679-4l12.28-27.175,12.28,27.175a6.814,6.814,0,0,0,5.679,4l27.114,2.15-22.329,20.1a6.84,6.84,0,0,0-2,6.949l8.553,29.933-25.5-17a6.8,6.8,0,0,0-7.57,0l-26.65,17.769L47,85.451a6.823,6.823,0,0,0-1.884-6.417L24.382,58.815Z" transform="translate(-2 -2)" fill="#707070"/>
</svg>
