<svg xmlns="http://www.w3.org/2000/svg" width="512.4" height="489.24" viewBox="0 0 512.4 489.24">
  <g id="star" transform="translate(0 -11.011)">
    <g id="Grupo_1487" data-name="Grupo 1487" transform="translate(0 11.011)">
      <path id="Trazado_321" data-name="Trazado 321" d="M511.7,195.9a14.294,14.294,0,0,0-11.463-9.675L340.379,163.5,268.445,18.9a14.255,14.255,0,0,0-12.725-7.888h0A14.164,14.164,0,0,0,242.994,19L172.006,164.03,12.151,187.8A14.294,14.294,0,0,0,.688,197.473a14.043,14.043,0,0,0,3.681,14.513l116,112.424L93.551,483.634a14.275,14.275,0,0,0,13.987,16.617,13.5,13.5,0,0,0,6.626-1.683l142.713-75.616,143.133,74.774a14.522,14.522,0,0,0,6.52,1.578h0a14.274,14.274,0,0,0,14.2-14.2,11.1,11.1,0,0,0-.421-3.26L392.648,323.569,507.911,210.514A13.905,13.905,0,0,0,511.7,195.9ZM367.618,308.53a14.035,14.035,0,0,0-4,12.62L387.7,459.236,263.4,394.347a14.382,14.382,0,0,0-13.251,0L126.258,459.972l23.242-138.3a14.184,14.184,0,0,0-4.1-12.515l-100.54-97.6,138.716-20.613A14.092,14.092,0,0,0,194.2,183.17L255.825,57.285l62.47,125.57a14.447,14.447,0,0,0,10.727,7.782l138.821,19.772Z" transform="translate(0 -11.011)" fill="#ed8a19"/>
    </g>
  </g>
</svg>
