<svg xmlns="http://www.w3.org/2000/svg" width="136.521" height="136.525" viewBox="0 0 136.521 136.525">
  <path id="full_star" data-name="full star" d="M138.16,51.006a6.835,6.835,0,0,0-5.925-4.615L93.319,43.3,76.478,6.021a6.822,6.822,0,0,0-12.437-.007L47.2,43.3,8.284,46.391A6.828,6.828,0,0,0,4.059,58.084L32.818,86.12,22.646,130.162a6.83,6.83,0,0,0,10.444,7.215L70.26,112.6l37.169,24.779a6.827,6.827,0,0,0,10.355-7.55L105.3,86.14l30.964-27.865A6.838,6.838,0,0,0,138.16,51.006Z" transform="translate(-2.001 -2)" fill="#707070"/>
</svg>
