<svg xmlns="http://www.w3.org/2000/svg" width="512.405" height="489.239" viewBox="0 0 512.405 489.239">
  <g id="Grupo_1575" data-name="Grupo 1575" transform="translate(12403 13550)">
    <g id="Grupo_1574" data-name="Grupo 1574">
      <g id="Grupo_1573" data-name="Grupo 1573">
        <g id="Grupo_1572" data-name="Grupo 1572">
          <g id="Grupo_1571" data-name="Grupo 1571">
            <g id="Grupo_1570" data-name="Grupo 1570">
              <g id="Grupo_1569" data-name="Grupo 1569">
                <g id="Grupo_1568" data-name="Grupo 1568">
                  <g id="Grupo_1567" data-name="Grupo 1567">
                    <g id="Grupo_1566" data-name="Grupo 1566">
                      <g id="Grupo_1565" data-name="Grupo 1565">
                        <g id="Grupo_1564" data-name="Grupo 1564">
                          <g id="Grupo_1563" data-name="Grupo 1563">
                            <g id="Grupo_1562" data-name="Grupo 1562">
                              <g id="Grupo_1561" data-name="Grupo 1561">
                                <g id="Grupo_1560" data-name="Grupo 1560">
                                  <g id="Grupo_1559" data-name="Grupo 1559">
                                    <g id="Grupo_1558" data-name="Grupo 1558">
                                      <g id="Grupo_1557" data-name="Grupo 1557">
                                        <g id="Grupo_1556" data-name="Grupo 1556">
                                          <g id="Grupo_1555" data-name="Grupo 1555">
                                            <g id="star" transform="translate(-12403.002 -13561.012)">
                                              <g id="Grupo_1487" data-name="Grupo 1487" transform="translate(0 11.011)">
                                                <path id="Trazado_321" data-name="Trazado 321" d="M511.7,195.9a14.294,14.294,0,0,0-11.463-9.675L340.379,163.5,268.445,18.9a14.255,14.255,0,0,0-12.725-7.888h0A14.164,14.164,0,0,0,242.994,19L172.006,164.03,12.151,187.8A14.294,14.294,0,0,0,.688,197.473a14.043,14.043,0,0,0,3.681,14.513l116,112.424L93.551,483.634a14.275,14.275,0,0,0,13.987,16.617,13.5,13.5,0,0,0,6.626-1.683l142.713-75.616L400.01,497.726a14.522,14.522,0,0,0,6.52,1.578h0a14.274,14.274,0,0,0,14.2-14.2,11.1,11.1,0,0,0-.421-3.26L392.648,323.569,507.911,210.514A13.9,13.9,0,0,0,511.7,195.9ZM367.618,308.53a14.035,14.035,0,0,0-4,12.62L387.7,459.236,263.4,394.347a14.382,14.382,0,0,0-13.251,0L126.258,459.972l23.242-138.3a14.184,14.184,0,0,0-4.1-12.515l-100.54-97.6,138.716-20.613A14.092,14.092,0,0,0,194.2,183.17L255.825,57.285l62.47,125.57a14.447,14.447,0,0,0,10.727,7.782l138.821,19.772Z" transform="translate(0 -11.011)" fill="#ed8a19"/>
                                              </g>
                                            </g>
                                            <line id="Línea_120" data-name="Línea 120" y2="379" transform="translate(-12146.5 -13542.5)" fill="none" stroke="#ed8a19" stroke-linecap="round" stroke-width="12"/>
                                            <ellipse id="Elipse_88" data-name="Elipse 88" cx="38.5" cy="31" rx="38.5" ry="31" transform="translate(-12362 -13367)" fill="#ed8a19"/>
                                            <ellipse id="Elipse_89" data-name="Elipse 89" cx="48.5" cy="40.5" rx="48.5" ry="40.5" transform="translate(-12323 -13336)" fill="#ed8a19"/>
                                            <ellipse id="Elipse_90" data-name="Elipse 90" cx="64" cy="60" rx="64" ry="60" transform="translate(-12274 -13295)" fill="#ed8a19"/>
                                            <ellipse id="Elipse_91" data-name="Elipse 91" cx="41" cy="42.5" rx="41" ry="42.5" transform="translate(-12274 -13206)" fill="#ed8a19"/>
                                            <ellipse id="Elipse_92" data-name="Elipse 92" cx="28.5" cy="33" rx="28.5" ry="33" transform="translate(-12290 -13157)" fill="#ed8a19"/>
                                            <ellipse id="Elipse_93" data-name="Elipse 93" cx="31.5" cy="36.5" rx="31.5" ry="36.5" transform="translate(-12210 -13211)" fill="#ed8a19"/>
                                            <ellipse id="Elipse_94" data-name="Elipse 94" cx="19.5" cy="23.5" rx="19.5" ry="23.5" transform="translate(-12186 -13235)" fill="#ed8a19"/>
                                            <ellipse id="Elipse_95" data-name="Elipse 95" cx="24" cy="19" rx="24" ry="19" transform="translate(-12274 -13218)" fill="#ed8a19"/>
                                            <ellipse id="Elipse_96" data-name="Elipse 96" cx="58" cy="48.5" rx="58" ry="48.5" transform="translate(-12308 -13378)" fill="#ed8a19"/>
                                            <circle id="Elipse_97" data-name="Elipse 97" cx="39.5" cy="39.5" r="39.5" transform="translate(-12226 -13394)" fill="#ed8a19"/>
                                            <ellipse id="Elipse_98" data-name="Elipse 98" cx="39.5" cy="40.5" rx="39.5" ry="40.5" transform="translate(-12226 -13336)" fill="#ed8a19"/>
                                            <ellipse id="Elipse_99" data-name="Elipse 99" cx="23" cy="25" rx="23" ry="25" transform="translate(-12192 -13360)" fill="#ed8a19"/>
                                            <ellipse id="Elipse_100" data-name="Elipse 100" cx="12" cy="25" rx="12" ry="25" transform="translate(-12166 -13295)" fill="#ed8a19"/>
                                            <ellipse id="Elipse_101" data-name="Elipse 101" cx="25" cy="31.5" rx="25" ry="31.5" transform="translate(-12204 -13441)" fill="#ed8a19"/>
                                            <ellipse id="Elipse_102" data-name="Elipse 102" cx="20.5" cy="18" rx="20.5" ry="18" transform="translate(-12219 -13409)" fill="#ed8a19"/>
                                            <ellipse id="Elipse_103" data-name="Elipse 103" cx="16.5" cy="28.5" rx="16.5" ry="28.5" transform="translate(-12179 -13424)" fill="#ed8a19"/>
                                            <ellipse id="Elipse_104" data-name="Elipse 104" cx="20" cy="35.5" rx="20" ry="35.5" transform="translate(-12186 -13480)" fill="#ed8a19"/>
                                            <ellipse id="Elipse_105" data-name="Elipse 105" cx="11" cy="19" rx="11" ry="19" transform="translate(-12169 -13503)" fill="#ed8a19"/>
                                            <ellipse id="Elipse_106" data-name="Elipse 106" cx="38.5" cy="31" rx="38.5" ry="31" transform="translate(-12008 -13368)" fill="#ed8a19"/>
                                            <ellipse id="Elipse_107" data-name="Elipse 107" cx="48.5" cy="40.5" rx="48.5" ry="40.5" transform="translate(-12067 -13337)" fill="#ed8a19"/>
                                            <ellipse id="Elipse_108" data-name="Elipse 108" cx="64" cy="60" rx="64" ry="60" transform="translate(-12147 -13296)" fill="#ed8a19"/>
                                            <ellipse id="Elipse_109" data-name="Elipse 109" cx="41" cy="42.5" rx="41" ry="42.5" transform="translate(-12101 -13207)" fill="#ed8a19"/>
                                            <ellipse id="Elipse_110" data-name="Elipse 110" cx="28.5" cy="33" rx="28.5" ry="33" transform="translate(-12060 -13158)" fill="#ed8a19"/>
                                            <ellipse id="Elipse_111" data-name="Elipse 111" cx="31.5" cy="36.5" rx="31.5" ry="36.5" transform="translate(-12146 -13212)" fill="#ed8a19"/>
                                            <ellipse id="Elipse_112" data-name="Elipse 112" cx="19.5" cy="23.5" rx="19.5" ry="23.5" transform="translate(-12146 -13236)" fill="#ed8a19"/>
                                            <ellipse id="Elipse_113" data-name="Elipse 113" cx="24" cy="19" rx="24" ry="19" transform="translate(-12067 -13219)" fill="#ed8a19"/>
                                            <ellipse id="Elipse_114" data-name="Elipse 114" cx="58" cy="48.5" rx="58" ry="48.5" transform="translate(-12101 -13379)" fill="#ed8a19"/>
                                            <circle id="Elipse_115" data-name="Elipse 115" cx="39.5" cy="39.5" r="39.5" transform="translate(-12146 -13395)" fill="#ed8a19"/>
                                            <ellipse id="Elipse_116" data-name="Elipse 116" cx="39.5" cy="40.5" rx="39.5" ry="40.5" transform="translate(-12146 -13337)" fill="#ed8a19"/>
                                            <ellipse id="Elipse_117" data-name="Elipse 117" cx="23" cy="25" rx="23" ry="25" transform="translate(-12147 -13361)" fill="#ed8a19"/>
                                            <ellipse id="Elipse_118" data-name="Elipse 118" cx="12" cy="25" rx="12" ry="25" transform="translate(-12151 -13296)" fill="#ed8a19"/>
                                            <ellipse id="Elipse_119" data-name="Elipse 119" cx="25" cy="31.5" rx="25" ry="31.5" transform="translate(-12139 -13442)" fill="#ed8a19"/>
                                            <ellipse id="Elipse_120" data-name="Elipse 120" cx="20.5" cy="18" rx="20.5" ry="18" transform="translate(-12115 -13410)" fill="#ed8a19"/>
                                            <ellipse id="Elipse_121" data-name="Elipse 121" cx="16.5" cy="28.5" rx="16.5" ry="28.5" transform="translate(-12147 -13425)" fill="#ed8a19"/>
                                            <ellipse id="Elipse_122" data-name="Elipse 122" cx="20" cy="35.5" rx="20" ry="35.5" transform="translate(-12147 -13481)" fill="#ed8a19"/>
                                            <ellipse id="Elipse_123" data-name="Elipse 123" cx="11" cy="19" rx="11" ry="19" transform="translate(-12146 -13504)" fill="#ed8a19"/>
                                            <ellipse id="Elipse_124" data-name="Elipse 124" cx="23.5" cy="27" rx="23.5" ry="27" transform="translate(-12114 -13176)" fill="#ed8a19"/>
                                            <ellipse id="Elipse_125" data-name="Elipse 125" cx="88" cy="73.5" rx="88" ry="73.5" transform="translate(-12219 -13347)" fill="#ed8a19"/>
                                          </g>
                                        </g>
                                      </g>
                                    </g>
                                  </g>
                                </g>
                              </g>
                            </g>
                          </g>
                        </g>
                      </g>
                    </g>
                  </g>
                </g>
              </g>
            </g>
            <rect id="Rectángulo_824" data-name="Rectángulo 824" width="53" height="353" transform="translate(-12175 -13499)" fill="#ed8a19"/>
            <ellipse id="Elipse_126" data-name="Elipse 126" cx="48.5" cy="44.5" rx="48.5" ry="44.5" transform="translate(-12264 -13212)" fill="#ed8a19"/>
            <ellipse id="Elipse_127" data-name="Elipse 127" cx="35.5" cy="36" rx="35.5" ry="36" transform="translate(-12325 -13373)" fill="#ed8a19"/>
            <ellipse id="Elipse_128" data-name="Elipse 128" cx="104.5" cy="92.5" rx="104.5" ry="92.5" transform="translate(-12226 -13387)" fill="#ed8a19"/>
            <ellipse id="Elipse_129" data-name="Elipse 129" cx="46.5" cy="40" rx="46.5" ry="40" transform="translate(-12210 -13425)" fill="#ed8a19"/>
            <circle id="Elipse_130" data-name="Elipse 130" cx="51.5" cy="51.5" r="51.5" transform="translate(-12131 -13235)" fill="#ed8a19"/>
            <ellipse id="Elipse_131" data-name="Elipse 131" cx="42" cy="40" rx="42" ry="40" transform="translate(-12068 -13364)" fill="#ed8a19"/>
            <ellipse id="Elipse_132" data-name="Elipse 132" cx="63" cy="63.5" rx="63" ry="63.5" transform="translate(-12289 -13345)" fill="#ed8a19"/>
          </g>
        </g>
      </g>
    </g>
  </g>
</svg>
