<svg xmlns="http://www.w3.org/2000/svg" width="136.522" height="136.525" viewBox="0 0 136.522 136.525">
  <path id="star_half" data-name="star half" d="M22.648,130.162a6.83,6.83,0,0,0,10.444,7.215L70.261,112.6l37.169,24.779a6.827,6.827,0,0,0,10.355-7.55L105.3,86.14l30.964-27.865A6.826,6.826,0,0,0,132.237,46.4L93.32,43.3,76.48,6.021a6.822,6.822,0,0,0-12.437-.007L47.2,43.3,8.285,46.391A6.828,6.828,0,0,0,4.06,58.084L32.826,86.12ZM70.261,25.407,84.2,56.269l4.014.321h.007l27.114,2.15-22.329,20.1c-.007.007-.007.007-.007.014l-3.161,2.84,1.167,4.075v.02l8.553,29.933-29.3-19.53Z" transform="translate(-2 -2)" fill="#707070"/>
</svg>
