<svg xmlns="http://www.w3.org/2000/svg" width="512.4" height="489.24" viewBox="0 0 512.4 489.24">
  <g id="Grupo_1520" data-name="Grupo 1520" transform="translate(11674 13776)">
    <g id="Grupo_1519" data-name="Grupo 1519">
      <g id="Grupo_1518" data-name="Grupo 1518">
        <g id="Grupo_1517" data-name="Grupo 1517">
          <g id="Grupo_1516" data-name="Grupo 1516">
            <g id="Grupo_1515" data-name="Grupo 1515">
              <g id="Grupo_1514" data-name="Grupo 1514">
                <g id="Grupo_1513" data-name="Grupo 1513">
                  <g id="Grupo_1512" data-name="Grupo 1512">
                    <g id="Grupo_1511" data-name="Grupo 1511">
                      <g id="Grupo_1510" data-name="Grupo 1510">
                        <g id="Grupo_1509" data-name="Grupo 1509">
                          <g id="Grupo_1508" data-name="Grupo 1508">
                            <g id="Grupo_1507" data-name="Grupo 1507">
                              <g id="Grupo_1506" data-name="Grupo 1506">
                                <g id="Grupo_1505" data-name="Grupo 1505">
                                  <g id="Grupo_1504" data-name="Grupo 1504">
                                    <g id="Grupo_1503" data-name="Grupo 1503">
                                      <g id="Grupo_1502" data-name="Grupo 1502">
                                        <g id="Grupo_1501" data-name="Grupo 1501">
                                          <g id="Grupo_1500" data-name="Grupo 1500">
                                            <g id="Grupo_1499" data-name="Grupo 1499">
                                              <g id="Grupo_1498" data-name="Grupo 1498">
                                                <g id="Grupo_1497" data-name="Grupo 1497">
                                                  <g id="Grupo_1496" data-name="Grupo 1496">
                                                    <g id="Grupo_1495" data-name="Grupo 1495">
                                                      <g id="Grupo_1494" data-name="Grupo 1494">
                                                        <g id="Grupo_1493" data-name="Grupo 1493">
                                                          <g id="Grupo_1492" data-name="Grupo 1492">
                                                            <g id="Grupo_1491" data-name="Grupo 1491">
                                                              <g id="Grupo_1490" data-name="Grupo 1490">
                                                                <g id="Grupo_1489" data-name="Grupo 1489">
                                                                  <g id="star" transform="translate(-11674 -13787.011)">
                                                                    <g id="Grupo_1487" data-name="Grupo 1487" transform="translate(0 11.011)">
                                                                      <path id="Trazado_321" data-name="Trazado 321" d="M511.7,195.9a14.294,14.294,0,0,0-11.463-9.675L340.379,163.5,268.445,18.9a14.255,14.255,0,0,0-12.725-7.888h0A14.164,14.164,0,0,0,242.994,19L172.006,164.03,12.151,187.8A14.294,14.294,0,0,0,.688,197.473a14.043,14.043,0,0,0,3.681,14.513l116,112.424L93.551,483.634a14.275,14.275,0,0,0,13.987,16.617,13.5,13.5,0,0,0,6.626-1.683l142.713-75.616,143.133,74.774a14.522,14.522,0,0,0,6.52,1.578h0a14.274,14.274,0,0,0,14.2-14.2,11.1,11.1,0,0,0-.421-3.26L392.648,323.569,507.911,210.514A13.905,13.905,0,0,0,511.7,195.9ZM367.618,308.53a14.035,14.035,0,0,0-4,12.62L387.7,459.236,263.4,394.347a14.382,14.382,0,0,0-13.251,0L126.258,459.972l23.242-138.3a14.184,14.184,0,0,0-4.1-12.515l-100.54-97.6,138.716-20.613A14.092,14.092,0,0,0,194.2,183.17L255.825,57.285l62.47,125.57a14.447,14.447,0,0,0,10.727,7.782l138.821,19.772Z" transform="translate(0 -11.011)" fill="#ed8a19"/>
                                                                    </g>
                                                                  </g>
                                                                  <line id="Línea_119" data-name="Línea 119" y2="342" transform="translate(-11417.5 -13730.5)" fill="none" stroke="#ed8a19" stroke-linecap="round" stroke-width="12"/>
                                                                  <path id="Polígono_1" data-name="Polígono 1" d="M120,0,240,203H0Z" transform="translate(-11626 -13419) rotate(-90)" fill="#ed8a19"/>
                                                                  <rect id="Rectángulo_815" data-name="Rectángulo 815" width="143" height="52" transform="translate(-11635 -13596)" fill="#ed8a19"/>
                                                                  <rect id="Rectángulo_816" data-name="Rectángulo 816" width="32" height="140" transform="translate(-11449 -13723)" fill="#ed8a19"/>
                                                                  <rect id="Rectángulo_817" data-name="Rectángulo 817" width="30" height="103" transform="translate(-11468 -13673)" fill="#ed8a19"/>
                                                                  <rect id="Rectángulo_818" data-name="Rectángulo 818" width="127" height="109" transform="translate(-11544 -13493)" fill="#ed8a19"/>
                                                                  <rect id="Rectángulo_819" data-name="Rectángulo 819" width="122" height="21" transform="translate(-11555 -13388)" fill="#ed8a19"/>
                                                                  <rect id="Rectángulo_820" data-name="Rectángulo 820" width="31" height="68" transform="translate(-11555 -13378)" fill="#ed8a19"/>
                                                                  <rect id="Rectángulo_821" data-name="Rectángulo 821" width="76" height="40" transform="translate(-11544 -13384)" fill="#ed8a19"/>
                                                                  <rect id="Rectángulo_822" data-name="Rectángulo 822" width="34" height="24" transform="translate(-11540 -13352)" fill="#ed8a19"/>
                                                                </g>
                                                              </g>
                                                            </g>
                                                          </g>
                                                        </g>
                                                      </g>
                                                    </g>
                                                  </g>
                                                </g>
                                              </g>
                                            </g>
                                          </g>
                                        </g>
                                      </g>
                                    </g>
                                  </g>
                                </g>
                              </g>
                            </g>
                          </g>
                        </g>
                        <rect id="Rectángulo_823" data-name="Rectángulo 823" width="30" height="365" transform="translate(-11443 -13740)" fill="#ed8a19"/>
                      </g>
                    </g>
                  </g>
                </g>
              </g>
            </g>
          </g>
        </g>
      </g>
    </g>
  </g>
</svg>
