<svg id="instagram" xmlns="http://www.w3.org/2000/svg" width="122.927" height="123.132" viewBox="0 0 122.927 123.132">
  <path id="Trazado_84" data-name="Trazado 84" d="M125.528,39.324a44.57,44.57,0,0,0-2.86-15.127A31.467,31.467,0,0,0,104.695,6.223,45.1,45.1,0,0,0,89.772,3.356c-6.567-.294-8.649-.375-25.319-.375s-18.806,0-25.325.375A45.091,45.091,0,0,0,24.213,6.223,31.448,31.448,0,0,0,6.239,24.2a44.739,44.739,0,0,0-2.86,14.915C3.086,45.686,3,47.768,3,64.438s0,18.8.382,25.325a45.022,45.022,0,0,0,2.86,14.929,31.467,31.467,0,0,0,17.98,17.967,44.944,44.944,0,0,0,14.915,3.072c6.574.294,8.656.382,25.325.382s18.806,0,25.325-.382a44.983,44.983,0,0,0,14.922-2.86A31.506,31.506,0,0,0,122.682,104.9a44.956,44.956,0,0,0,2.86-14.929c.294-6.567.382-8.649.382-25.325S125.911,45.857,125.528,39.324ZM64.413,95.961A31.558,31.558,0,1,1,95.971,64.4,31.551,31.551,0,0,1,64.413,95.961ZM97.227,39.037a7.359,7.359,0,1,1,7.352-7.359A7.349,7.349,0,0,1,97.227,39.037Z" transform="translate(-2.997 -2.981)" fill="#fff"/>
  <ellipse id="Elipse_34" data-name="Elipse 34" cx="20.499" cy="20.499" rx="20.499" ry="20.499" transform="translate(40.917 40.923)" fill="#fff"/>
</svg>
