<svg id="bx-map" xmlns="http://www.w3.org/2000/svg" width="116.801" height="146" viewBox="0 0 116.801 146">
  <path id="Trazado_137" data-name="Trazado 137" d="M284.4,249.8a29.2,29.2,0,1,0-29.2-29.2A29.229,29.229,0,0,0,284.4,249.8Zm0-43.8a14.6,14.6,0,1,1-14.6,14.6A14.615,14.615,0,0,1,284.4,206Z" transform="translate(-225.999 -162.2)"/>
  <path id="Trazado_138" data-name="Trazado 138" d="M181.764,208.442a7.28,7.28,0,0,0,8.468,0c2.219-1.57,54.378-39.23,54.166-86.242a58.4,58.4,0,0,0-116.8-.036C127.386,169.212,179.545,206.873,181.764,208.442ZM186,78.4a43.852,43.852,0,0,1,43.8,43.837c.153,32.4-32.032,61.488-43.8,71.029-11.76-9.548-43.953-38.646-43.8-71.065A43.844,43.844,0,0,1,186,78.4Z" transform="translate(-127.597 -63.8)"/>
</svg>
