<svg xmlns="http://www.w3.org/2000/svg" xmlns:xlink="http://www.w3.org/1999/xlink" width="136.828" height="136.525" viewBox="0 0 136.828 136.525">
  <defs>
    <clipPath id="clip-path">
      <rect id="Rectángulo_601" data-name="Rectángulo 601" width="136.828" height="136.525" fill="none"/>
    </clipPath>
  </defs>
  <g id="notificaciones" clip-path="url(#clip-path)">
    <path id="Trazado_48" data-name="Trazado 48" d="M118.081,110.182H78.6a15.794,15.794,0,0,1-31.587,0H7.529a7.579,7.579,0,0,1-7.108-5.505,8.358,8.358,0,0,1,2.371-8.661,31.571,31.571,0,0,0,12.635-25.14V47.333a47.372,47.372,0,1,1,94.745,0l-.011,23.57A31.571,31.571,0,0,0,122.8,96.042a7.416,7.416,0,0,1,2.371,8.661A7.579,7.579,0,0,1,118.081,110.182Z" transform="translate(5.458 5.215)" fill="none" stroke="#fff" stroke-width="15" fill-rule="evenodd"/>
  </g>
</svg>
