<svg xmlns="http://www.w3.org/2000/svg" width="28.729" height="28.788" viewBox="0 0 28.729 28.788">
  <path id="Trazado_13" data-name="Trazado 13" d="M24.138,22.565H16.079a3.224,3.224,0,1,1-6.447,0H1.574A1.548,1.548,0,0,1,.123,21.436a1.721,1.721,0,0,1,.484-1.773,6.489,6.489,0,0,0,2.579-5.158V9.671a9.671,9.671,0,0,1,19.341,0v4.835a6.489,6.489,0,0,0,2.579,5.158,1.526,1.526,0,0,1,.484,1.773A1.548,1.548,0,0,1,24.138,22.565Z" transform="translate(1.477 1.5)" fill="none" stroke="#000" stroke-width="3" fill-rule="evenodd"/>
</svg>
