<svg xmlns="http://www.w3.org/2000/svg" width="33.192" height="36.838" viewBox="0 0 33.192 36.838">
    <defs>
        <style>
            .cls-1{fill:#fff}
        </style>
    </defs>
    <path id="bxs-bell" d="M34.313 25.51v-5.091c0-8.432-4.529-14.656-11.353-16.2a3.685 3.685 0 0 0-6.763 0c-6.825 1.544-11.354 7.768-11.354 16.2v5.091L3.194 28.8a1.842 1.842 0 0 0 1.649 2.67h29.47a.121.121 0 0 0 .037 0 1.842 1.842 0 0 0 1.464-2.96zM19.578 38.838a5.489 5.489 0 0 0 5.19-3.684H14.387a5.489 5.489 0 0 0 5.191 3.684z" class="cls-1" transform="translate(-2.999 -2)"/>
</svg>
