<svg xmlns="http://www.w3.org/2000/svg" width="60.893" height="60.893" viewBox="0 0 60.893 60.893">
    <defs>
        <style>
            .cls-1{fill:#204653}
        </style>
    </defs>
    <path id="close" d="M29.064 21.529L41.443 9.15a5.2 5.2 0 0 0 0-7.535 5.2 5.2 0 0 0-7.535 0L21.529 13.994 9.15 1.615a5.2 5.2 0 0 0-7.535 0 5.2 5.2 0 0 0 0 7.535l12.379 12.379L1.615 33.908a5.2 5.2 0 0 0 0 7.535 4.886 4.886 0 0 0 3.768 1.615 4.886 4.886 0 0 0 3.767-1.615l12.379-12.379 12.379 12.379a5.2 5.2 0 0 0 7.535 0 5.2 5.2 0 0 0 0-7.535z" class="cls-1" transform="rotate(45 15.222 36.752)"/>
</svg>
