<svg xmlns="http://www.w3.org/2000/svg" width="134.149" height="108.96" viewBox="0 0 134.149 108.96">
  <path id="twitter" d="M122.367,31.174c.089,1.195.089,2.382.089,3.57,0,36.35-27.667,78.235-78.229,78.235A77.69,77.69,0,0,1,2,100.631a57.458,57.458,0,0,0,6.642.341A55.082,55.082,0,0,0,42.78,89.224,27.551,27.551,0,0,1,17.066,70.158a35.013,35.013,0,0,0,5.195.423,29.256,29.256,0,0,0,7.243-.935A27.488,27.488,0,0,1,7.454,42.662v-.341a27.745,27.745,0,0,0,12.424,3.488A27.535,27.535,0,0,1,11.359,9.043a78.207,78.207,0,0,0,56.7,28.773,31.244,31.244,0,0,1-.683-6.3A27.522,27.522,0,0,1,114.961,12.7,54.318,54.318,0,0,0,132.409,6.06,27.445,27.445,0,0,1,120.32,21.214a55.11,55.11,0,0,0,15.83-4.26A59.012,59.012,0,0,1,122.367,31.174Z" transform="translate(-2 -4.019)" fill="#fff"/>
</svg>
