<svg xmlns="http://www.w3.org/2000/svg" width="138.315" height="146" viewBox="0 0 138.315 146">
  <path id="bx-coffee" d="M18.368,2H33.737V25.053H18.368ZM49.105,2H64.474V25.053H49.105ZM79.842,2H95.21V25.053H79.842Zm46.105,53.789H110.579V40.421H3v84.526A23.081,23.081,0,0,0,26.053,148H87.526a23.081,23.081,0,0,0,23.053-23.053h15.368a15.384,15.384,0,0,0,15.368-15.368V71.158A15.384,15.384,0,0,0,125.947,55.789ZM95.21,124.947a7.687,7.687,0,0,1-7.684,7.684H26.053a7.687,7.687,0,0,1-7.684-7.684V55.789H95.21v69.158Zm15.368-15.368V71.158h15.368l.015,38.421Z" transform="translate(-3 -2)" fill="#fff"/>
</svg>
