<svg xmlns="http://www.w3.org/2000/svg" width="146.023" height="146" viewBox="0 0 146.023 146">
  <path id="bx-wrench" d="M22.594,143.632a14.9,14.9,0,0,0,21.081,0L76,111.31a55.907,55.907,0,0,0,68.214-74.692l-4.249-10.347L108.326,57.9,92.515,42.082l31.629-31.629L113.79,6.2A55.911,55.911,0,0,0,39.1,74.411L6.776,106.733a14.919,14.919,0,0,0,0,21.081ZM56.5,78.1,54.6,73.509a40.985,40.985,0,0,1,37.89-56.6c1.319,0,2.624.06,3.921.186L71.419,42.089l36.891,36.9L133.32,53.979A40.927,40.927,0,0,1,121.49,86.9a41.518,41.518,0,0,1-44.606,8.915l-4.584-1.9-39.165,39.18h.007l-.007,7.454v-7.454L17.316,117.273Z" transform="translate(-2.415 -2)" fill="#fff"/>
</svg>
