<svg xmlns="http://www.w3.org/2000/svg" width="146.001" height="146" viewBox="0 0 146.001 146">
  <path id="bx-home" d="M9.3,82.3h7.3v51.1A14.615,14.615,0,0,0,31.2,148h87.6a14.615,14.615,0,0,0,14.6-14.6V82.3h7.3a7.3,7.3,0,0,0,5.161-12.461l-65.7-65.7a7.292,7.292,0,0,0-10.322,0L4.14,69.84A7.3,7.3,0,0,0,9.3,82.3Zm51.1,51.1V96.9H89.6v36.5ZM75,19.624l43.8,43.8V96.9h0l.007,36.5H104.2V96.9A14.615,14.615,0,0,0,89.6,82.3H60.4A14.615,14.615,0,0,0,45.8,96.9v36.5H31.2V63.423Z" transform="translate(-2 -2)" fill="#fff"/>
</svg>
