<svg id="bx-purchase-tag-alt" xmlns="http://www.w3.org/2000/svg" width="146.002" height="146" viewBox="0 0 146.002 146">
  <path id="Trazado_135" data-name="Trazado 135" d="M72.861,4.139A7.281,7.281,0,0,0,67.7,2H31.2a7.281,7.281,0,0,0-5.161,2.139l-21.9,21.9A7.268,7.268,0,0,0,2,31.2V67.7a7.268,7.268,0,0,0,2.139,5.161l73,73a7.3,7.3,0,0,0,10.322,0l58.4-58.4a7.292,7.292,0,0,0,0-10.322ZM82.3,130.378l-65.7-65.7V34.222L34.222,16.6H64.678l65.7,65.7Z" transform="translate(-2 -2)" fill="#fff"/>
  <ellipse id="Elipse_46" data-name="Elipse 46" cx="12.023" cy="12.023" rx="12.023" ry="12.023" transform="translate(34.354 34.354)" fill="#fff"/>
</svg>
