<svg xmlns="http://www.w3.org/2000/svg" width="208.563" height="146" viewBox="0 0 208.563 146">
  <path id="bx-pulse" d="M158.11,11.9a10.424,10.424,0,0,0-20-.761l-33.224,99.631L74.1,41.484a10.434,10.434,0,0,0-19.219.355L36.653,87.43H2v20.856H36.653A20.732,20.732,0,0,0,56.008,95.179l9.062-22.65,31.67,71.277A10.445,10.445,0,0,0,106.282,150c.167,0,.334,0,.5-.01a10.41,10.41,0,0,0,9.385-7.122L146.555,51.7l10.209,40.785A20.809,20.809,0,0,0,177,108.287h33.568V87.43H176.985Z" transform="translate(-2 -4)" fill="#fff"/>
</svg>
