<svg id="bx-bus" xmlns="http://www.w3.org/2000/svg" width="146.049" height="146" viewBox="0 0 146.049 146">
  <path id="Trazado_115" data-name="Trazado 115" d="M140.729,45.617V31.2A29.229,29.229,0,0,0,111.529,2h-73a29.229,29.229,0,0,0-29.2,29.2V45.785c-.314.015-.555.029-.555.029A7.3,7.3,0,0,0,2,53.1V67.7A7.3,7.3,0,0,0,9.3,75h.029v43.8A14.56,14.56,0,0,0,16.6,131.356V140.7a7.293,7.293,0,0,0,7.3,7.3h7.3a7.293,7.293,0,0,0,7.3-7.3v-7.3h73v7.3a7.293,7.293,0,0,0,7.3,7.3h7.3a7.293,7.293,0,0,0,7.3-7.3v-9.315a14.554,14.554,0,0,0,7.329-12.585V75a7.3,7.3,0,0,0,7.3-7.3V53.553a7.348,7.348,0,0,0-.526-3.322A7.631,7.631,0,0,0,140.729,45.617ZM126.144,118.8H23.929V89.6H126.136ZM23.929,75V45.8h43.8V75Zm58.4,0V45.8h43.8V67.7c0,.007.007.015.007.029V75Zm-43.8-58.4h73a14.615,14.615,0,0,1,14.6,14.6H23.929A14.615,14.615,0,0,1,38.529,16.6Z" transform="translate(-2 -2)" fill="#fff"/>
  <path id="Trazado_116" data-name="Trazado 116" d="M6,15H20.6V29.6H6Zm73,0H93.6V29.6H79Z" transform="translate(23.225 79.9)" fill="#fff"/>
</svg>
