<svg id="bx-bot" xmlns="http://www.w3.org/2000/svg" width="146.092" height="146" viewBox="0 0 146.092 146">
  <path id="Trazado_113" data-name="Trazado 113" d="M147.537,72.131a7.619,7.619,0,0,0-6.774-4.621V45.8a14.615,14.615,0,0,0-14.6-14.6h-43.8V21.053a10.95,10.95,0,1,0-14.6,0V31.2h-43.8a14.615,14.615,0,0,0-14.6,14.6V67.678c-.358.022-.6.044-.6.044A7.3,7.3,0,0,0,1.99,75V89.6a7.293,7.293,0,0,0,7.3,7.3h.073v36.5a14.615,14.615,0,0,0,14.6,14.6h102.2a14.615,14.615,0,0,0,14.6-14.6V96.9a7.293,7.293,0,0,0,7.3-7.3V75.453A7.347,7.347,0,0,0,147.537,72.131ZM23.963,133.4V45.8h102.2l.007,29.171c0,.015-.007.022-.007.029V89.6c0,.015.007.022.007.036l.007,43.763Z" transform="translate(-1.99 -2)" fill="#fff"/>
  <ellipse id="Elipse_41" data-name="Elipse 41" cx="10.95" cy="14.6" rx="10.95" ry="14.6" transform="translate(36.573 58.4)" fill="#fff"/>
  <ellipse id="Elipse_42" data-name="Elipse 42" cx="10.95" cy="14.6" rx="10.95" ry="14.6" transform="translate(87.673 58.4)" fill="#fff"/>
  <path id="Trazado_114" data-name="Trazado 114" d="M8,16H66.4V30.6H8Z" transform="translate(35.873 86.2)" fill="#fff"/>
</svg>
